#!OML:ASF G:\JayActor3\Patient Classification 1\Patient 1\Session 6\male.ASF
:FULLY-SPECIFIED
:DEGREES
3571
root -0.570806 16.5427 -2.93588 132.159 -87.3881 -133.72
lowerback 6.28419 0.459175 2.08329
upperback -3.23055 0.733709 -0.922359
thorax -6.87128 0.236 -2.22492
lowerneck 10.6823 15.4852 8.33943
upperneck -7.87835 21.5545 -4.07172
head -3.02548 10.6361 -3.7341
rclavicle 3.8266e-015 -8.34896e-015
rhumerus -66.8087 16.3895 -83.1101
rradius 79.3913
rwrist 7.03581
rhand -13.1744 1.11091
rfingers 7.12502
rthumb 12.925 -28.4688
lclavicle 3.8266e-015 -8.34896e-015
lhumerus -63.509 -34.5858 94.1114
lradius 78.2299
lwrist 20.2731
lhand 7.59036 4.47613
lfingers 7.12502
lthumb 32.8375 31.5105
rfemur -5.89299 3.77073 15.0897
rtibia 29.852
rfoot -25.507 -18.7601
rtoes 5.70848
lfemur 1.51682 9.6857 -12.2471
ltibia 14.1339
lfoot -15.623 22.0595
ltoes 3.42304
3572
root -0.570621 16.5437 -2.92219 133.525 -87.3366 -135.087
lowerback 6.30153 0.448593 2.04779
upperback -3.2153 0.716037 -0.932501
thorax -6.86622 0.228968 -2.21355
lowerneck 10.6988 15.4855 8.33767
upperneck -7.89478 21.5566 -4.0678
head -3.03479 10.6363 -3.73599
rclavicle -1.19271e-014 -3.97569e-016
rhumerus -67.0798 16.6199 -83.1727
rradius 80.0222
rwrist 7.20952
rhand -13.1638 1.27472
rfingers 7.12502
rthumb 12.9353 -28.3043
lclavicle -1.19271e-014 -3.97569e-016
lhumerus -63.8659 -34.5905 94.1451
lradius 78.7936
lwrist 20.1977
lhand 7.54556 4.41571
lfingers 7.12502
lthumb 32.7948 31.459
rfemur -5.92217 3.78204 15.0194
rtibia 29.8632
rfoot -25.4625 -18.6628
rtoes 5.80638
lfemur 1.53412 9.76818 -12.2987
ltibia 14.1351
lfoot -15.6356 22.0554
ltoes 3.43408
3573
root -0.570458 16.5447 -2.90819 134.805 -87.2785 -136.367
lowerback 6.32305 0.438449 2.01961
upperback -3.20472 0.699643 -0.943043
thorax -6.8684 0.222042 -2.20699
lowerneck 10.7144 15.4854 8.33656
upperneck -7.90487 21.5587 -4.05872
head -3.04226 10.6364 -3.73579
rclavicle 9.44227e-016 -7.55382e-015
rhumerus -67.352 16.8448 -83.2383
rradius 80.6385
rwrist 7.39243
rhand -13.1804 1.4512
rfingers 7.12502
rthumb 12.9193 -28.1289
lclavicle 9.44227e-016 -7.55382e-015
lhumerus -64.224 -34.5847 94.1702
lradius 79.348
lwrist 20.1085
lhand 7.48651 4.3512
lfingers 7.12502
lthumb 32.7387 31.4062
rfemur -5.95468 3.78876 14.9519
rtibia 29.8757
rfoot -25.4117 -18.5629
rtoes 5.89826
lfemur 1.54853 9.84518 -12.3469
ltibia 14.1405
lfoot -15.6604 22.055
ltoes 3.4694
3574
root -0.570344 16.5455 -2.89392 135.972 -87.2117 -137.532
lowerback 6.33899 0.428108 1.9978
upperback -3.19118 0.68368 -0.9506
thorax -6.86415 0.21525 -2.20081
lowerneck 10.7214 15.487 8.3329
upperneck -7.91242 21.5617 -4.05151
head -3.04726 10.6372 -3.73462
rclavicle 8.29926e-015 -1.59028e-015
rhumerus -67.6123 17.0648 -83.3013
rradius 81.2406
rwrist 7.57473
rhand -13.227 1.63607
rfingers 7.12502
rthumb 12.8743 -27.9468
lclavicle 8.29926e-015 -1.59028e-015
lhumerus -64.5689 -34.5657 94.1807
lradius 79.8914
lwrist 20.0093
lhand 7.41284 4.2735
lfingers 7.12502
lthumb 32.6686 31.3431
rfemur -5.99125 3.79424 14.8905
rtibia 29.8895
rfoot -25.3545 -18.4607
rtoes 5.98645
lfemur 1.55869 9.9185 -12.3886
ltibia 14.1504
lfoot -15.6917 22.0607
ltoes 3.50481
3575
root -0.570588 16.5462 -2.87931 137.027 -87.143 -138.585
lowerback 6.3532 0.41652 1.98054
upperback -3.17776 0.666449 -0.957865
thorax -6.85906 0.207641 -2.1967
lowerneck 10.7271 15.4897 8.32616
upperneck -7.92047 21.5656 -4.04409
head -3.05246 10.6386 -3.73287
rclavicle 2.33572e-015 6.36111e-015
rhumerus -67.8706 17.2802 -83.3671
rradius 81.8292
rwrist 7.74388
rhand -13.3025 1.82195
rfingers 7.12502
rthumb 12.8016 -27.7655
lclavicle 2.33572e-015 6.36111e-015
lhumerus -64.9118 -34.538 94.1826
lradius 80.4293
lwrist 19.9064
lhand 7.33055 4.2034
lfingers 7.12502
lthumb 32.5903 31.2892
rfemur -6.0257 3.78638 14.8281
rtibia 29.9037
rfoot -25.291 -18.3459
rtoes 6.08276
lfemur 1.56816 9.99397 -12.427
ltibia 14.1666
lfoot -15.7342 22.0594
ltoes 3.5462
3576
root -0.570693 16.5469 -2.86452 137.973 -87.0658 -139.522
lowerback 6.36607 0.406619 1.97186
upperback -3.16914 0.652261 -0.96434
thorax -6.85807 0.201027 -2.19699
lowerneck 10.7317 15.492 8.31937
upperneck -7.93036 21.5688 -4.03847
head -3.05798 10.6396 -3.7317
rclavicle 5.96354e-016 7.95139e-016
rhumerus -68.1293 17.4872 -83.4369
rradius 82.4052
rwrist 7.88968
rhand -13.407 2.00625
rfingers 7.12502
rthumb 12.7009 -27.5875
lclavicle 5.96354e-016 7.95139e-016
lhumerus -65.2534 -34.5082 94.1785
lradius 80.9593
lwrist 19.7999
lhand 7.23527 4.12902
lfingers 7.12502
lthumb 32.4996 31.2335
rfemur -6.07139 3.78032 14.7727
rtibia 29.9181
rfoot -25.2264 -18.228
rtoes 6.1971
lfemur 1.5659 10.0691 -12.4591
ltibia 14.1871
lfoot -15.779 22.0629
ltoes 3.57575
3577
root -0.570822 16.5477 -2.84958 138.828 -86.9812 -140.36
lowerback 6.36608 0.396673 1.96381
upperback -3.15694 0.638209 -0.965418
thorax -6.8459 0.194798 -2.19176
lowerneck 10.7303 15.4976 8.30344
upperneck -7.94587 21.5745 -4.03586
head -3.06479 10.6421 -3.73001
rclavicle 6.80837e-015 -1.23246e-014
rhumerus -68.3769 17.6958 -83.5062
rradius 82.9688
rwrist 8.00166
rhand -13.5349 2.18282
rfingers 7.12502
rthumb 12.5776 -27.4186
lclavicle 6.80837e-015 -1.23246e-014
lhumerus -65.5796 -34.4698 94.1659
lradius 81.4802
lwrist 19.6913
lhand 7.13098 4.05407
lfingers 7.12502
lthumb 32.4004 31.1789
rfemur -6.12491 3.77647 14.7236
rtibia 29.9314
rfoot -25.1616 -18.1067
rtoes 6.32475
lfemur 1.55355 10.1453 -12.4859
ltibia 14.2131
lfoot -15.8261 22.0704
ltoes 3.58979
3578
root -0.57114 16.5485 -2.83449 139.629 -86.897 -141.141
lowerback 6.35517 0.385543 1.95082
upperback -3.14194 0.622099 -0.96379
thorax -6.8246 0.18801 -2.18048
lowerneck 10.7317 15.5058 8.28424
upperneck -7.97249 21.5832 -4.03978
head -3.07538 10.6462 -3.73112
rclavicle -2.23633e-015 -1.19271e-015
rhumerus -68.6173 17.9072 -83.5775
rradius 83.5204
rwrist 8.07953
rhand -13.674 2.35553
rfingers 7.12502
rthumb 12.4435 -27.2541
lclavicle -2.23633e-015 -1.19271e-015
lhumerus -65.8974 -34.4264 94.1498
lradius 81.9942
lwrist 19.5805
lhand 7.01089 3.97435
lfingers 7.12502
lthumb 32.2861 31.1225
rfemur -6.18178 3.7679 14.6728
rtibia 29.9438
rfoot -25.0981 -17.9777
rtoes 6.46929
lfemur 1.53616 10.2245 -12.5131
ltibia 14.2421
lfoot -15.8843 22.0658
ltoes 3.63136
3579
root -0.571264 16.5496 -2.81941 140.349 -86.8025 -141.831
lowerback 6.33954 0.376082 1.93979
upperback -3.1305 0.608561 -0.958056
thorax -6.80425 0.182433 -2.16629
lowerneck 10.7365 15.5162 8.26165
upperneck -8.00368 21.5947 -4.04301
head -3.08846 10.6515 -3.73238
rclavicle 1.0635e-014 7.95139e-016
rhumerus -68.8584 18.12 -83.6538
rradius 84.0602
rwrist 8.13251
rhand -13.8093 2.51918
rfingers 7.12502
rthumb 12.313 -27.0983
lclavicle 1.0635e-014 7.95139e-016
lhumerus -66.2173 -34.3785 94.1354
lradius 82.5028
lwrist 19.4629
lhand 6.88023 3.88475
lfingers 7.12502
lthumb 32.1617 31.0581
rfemur -6.25021 3.77325 14.6331
rtibia 29.9551
rfoot -25.0386 -17.856
rtoes 6.62053
lfemur 1.50923 10.2975 -12.5341
ltibia 14.2715
lfoot -15.9527 22.0682
ltoes 3.70082
3580
root -0.571378 16.5508 -2.80441 141.054 -86.7075 -142.504
lowerback 6.31562 0.365748 1.91785
upperback -3.11689 0.59296 -0.948485
thorax -6.77701 0.176544 -2.14155
lowerneck 10.7448 15.5294 8.23722
upperneck -8.04317 21.6098 -4.05198
head -3.10438 10.6587 -3.73625
rclavicle 5.61567e-015 -7.95139e-015
rhumerus -69.0934 18.3398 -83.7313
rradius 84.5882
rwrist 8.1741
rhand -13.9364 2.67961
rfingers 7.12502
rthumb 12.1905 -26.9452
lclavicle 5.61567e-015 -7.95139e-015
lhumerus -66.5341 -34.3239 94.1229
lradius 83.0059
lwrist 19.3404
lhand 6.7297 3.78409
lfingers 7.12502
lthumb 32.0184 30.9864
rfemur -6.32402 3.78727 14.5938
rtibia 29.966
rfoot -24.9809 -17.7418
rtoes 6.77234
lfemur 1.47908 10.3686 -12.5576
ltibia 14.2988
lfoot -16.0273 22.0687
ltoes 3.79315
3581
root -0.571697 16.5523 -2.78929 141.741 -86.6183 -143.159
lowerback 6.29894 0.353318 1.8895
upperback -3.10932 0.573938 -0.940706
thorax -6.76057 0.168967 -2.11486
lowerneck 10.7658 15.5422 8.21769
upperneck -8.08417 21.6259 -4.06187
head -3.12247 10.6663 -3.74265
rclavicle -2.48481e-016 -7.95139e-015
rhumerus -69.341 18.5666 -83.8208
rradius 85.1024
rwrist 8.21469
rhand -14.0506 2.83779
rfingers 7.12502
rthumb 12.0803 -26.7935
lclavicle -2.48481e-016 -7.95139e-015
lhumerus -66.8708 -34.2643 94.1202
lradius 83.5089
lwrist 19.2106
lhand 6.56579 3.66664
lfingers 7.12502
lthumb 31.8623 30.9001
rfemur -6.39621 3.79654 14.5481
rtibia 29.9778
rfoot -24.9181 -17.6354
rtoes 6.89414
lfemur 1.453 10.4447 -12.5862
ltibia 14.32
lfoot -16.0964 22.0611
ltoes 3.89019
3582
root -0.571772 16.554 -2.77417 142.379 -86.5268 -143.761
lowerback 6.28906 0.341395 1.85959
upperback -3.10729 0.555561 -0.932611
thorax -6.75388 0.161572 -2.08719
lowerneck 10.7904 15.5543 8.20337
upperneck -8.12266 21.6419 -4.07208
head -3.13976 10.6738 -3.75003
rclavicle -5.36719e-015 9.93923e-015
rhumerus -69.5943 18.7953 -83.9177
rradius 85.6012
rwrist 8.26768
rhand -14.1489 2.98843
rfingers 7.12502
rthumb 11.9855 -26.6484
lclavicle -5.36719e-015 9.93923e-015
lhumerus -67.2181 -34.207 94.1281
lradius 84.0053
lwrist 19.0768
lhand 6.38892 3.53312
lfingers 7.12502
lthumb 31.6938 30.8
rfemur -6.47493 3.8143 14.506
rtibia 29.9907
rfoot -24.8522 -17.544
rtoes 6.9918
lfemur 1.42555 10.5182 -12.6145
ltibia 14.3342
lfoot -16.162 22.0572
ltoes 3.9929
3583
root -0.572192 16.5557 -2.75882 143.05 -86.4489 -144.405
lowerback 6.28991 0.326966 1.81843
upperback -3.10724 0.532679 -0.928974
thorax -6.75573 0.152208 -2.05748
lowerneck 10.8237 15.5642 8.1951
upperneck -8.15978 21.6566 -4.08284
head -3.15756 10.6804 -3.75927
rclavicle 1.14301e-015 0
rhumerus -69.8586 19.0285 -84.0248
rradius 86.0849
rwrist 8.33572
rhand -14.2273 3.12893
rfingers 7.12502
rthumb 11.9099 -26.5123
lclavicle 1.14301e-015 0
lhumerus -67.5835 -34.1542 94.1513
lradius 84.4968
lwrist 18.9402
lhand 6.20593 3.39056
lfingers 7.12502
lthumb 31.5195 30.6917
rfemur -6.54192 3.81663 14.4479
rtibia 30.0049
rfoot -24.7748 -17.4552
rtoes 7.047
lfemur 1.40945 10.5991 -12.6544
ltibia 14.3431
lfoot -16.2121 22.0454
ltoes 4.06475
